<?xml version="1.0" encoding="utf-8"?>
<svg width="48" height="48" xmlns="http://www.w3.org/2000/svg" xmlns:bx="https://boxy-svg.com" viewBox="0 0 48 48"><defs><bx:export><bx:file format="svg" path="logo.svg"/><bx:file format="png" width="128" height="128" path="logo_128.png"/><bx:file format="png" width="96" height="96" path="logo_96.png"/><bx:file format="png" width="64" height="64" path="logo_64.png"/><bx:file format="png" path="logo_48.png" width="48" height="48"/><bx:file format="png" path="logo_32.png" width="32" height="32"/><bx:file format="png" path="logo_24.png" width="24" height="24"/><bx:file format="png" path="logo_16.png" width="16" height="16"/></bx:export></defs><g><title>Layer 1</title><rect stroke="null" x="0.07877" y="0.25703" id="svg_1" ry="8.7" height="47.54044" width="47.63235" style="fill: rgb(105, 240, 174);"/><circle id="svg_2" stroke-width="2.5" fill="none" r="3.363" cy="32.94" cx="7.931" style="stroke: rgb(255, 82, 82);" transform="matrix(1.101169, 0, 0, 1.105718, -0.717111, -3.121112)"/><path stroke="null" id="svg_3" d="M 21.313 9.617 C 20.518 9.617 19.924 10.145 19.924 10.839 L 19.924 14.044 L 14.828 14.54 C 14.067 14.639 13.67 15.069 13.67 15.828 C 13.67 16.523 14.167 17.019 14.761 16.984 L 14.993 16.952 L 19.924 16.489 L 19.924 18.836 L 15.787 19.265 C 15.061 19.364 14.63 19.794 14.63 20.487 C 14.63 21.149 15.093 21.611 15.688 21.577 L 15.887 21.545 L 27.469 20.388 C 28.197 20.322 28.593 19.893 28.593 19.198 C 28.593 18.538 28.163 18.075 27.501 18.075 L 27.303 18.075 L 22.704 18.571 L 22.704 16.191 L 28.625 15.597 C 29.353 15.532 29.752 15.069 29.752 14.342 C 29.752 13.648 29.321 13.185 28.625 13.185 L 28.428 13.185 L 22.704 13.778 L 22.704 10.839 C 22.704 10.145 22.141 9.617 21.315 9.617 L 21.313 9.617 Z M 5.399 10.111 C 4.87 10.111 4.439 10.541 4.439 11.102 C 4.439 11.532 4.605 11.764 5.168 12.094 C 6.525 12.887 7.947 13.779 8.31 14.011 C 8.873 14.441 9.137 14.539 9.534 14.539 C 10.262 14.539 10.892 13.912 10.892 13.217 C 10.892 12.556 10.527 12.127 9.468 11.564 C 7.914 10.804 6.06 10.111 5.399 10.111 Z M 11.973 15.459 C 11.932 15.458 11.89 15.46 11.85 15.464 L 2.223 16.357 C 1.561 16.423 1.197 16.852 1.197 17.579 C 1.197 18.339 1.725 18.835 2.42 18.768 L 12.049 17.845 C 12.678 17.778 13.107 17.348 13.107 16.755 C 13.107 16.041 12.584 15.472 11.973 15.459 Z M 10.649 20.118 C 10.609 20.118 10.569 20.119 10.527 20.123 L 4.142 20.718 C 3.58 20.784 3.182 21.214 3.182 21.809 C 3.182 22.536 3.711 23.032 4.372 22.965 L 10.693 22.37 C 11.321 22.305 11.718 21.875 11.718 21.214 C 11.718 20.564 11.253 20.117 10.649 20.118 Z M 28.856 22.338 L 15.721 23.758 C 15.556 23.064 15.323 22.834 14.795 22.834 C 14.167 22.834 13.869 23.132 13.803 23.825 C 13.637 25.148 13.439 26.238 13.14 27.13 C 12.975 27.625 12.942 27.759 12.942 27.957 C 12.942 28.651 13.538 29.178 14.266 29.178 C 15.358 29.178 15.821 28.22 15.854 25.907 L 27.203 24.685 L 27.401 24.685 C 27.633 24.685 27.732 24.783 27.732 24.949 C 27.732 25.18 27.401 25.907 26.906 26.665 C 26.74 26.963 26.673 27.13 26.673 27.327 C 26.673 27.79 27.07 28.186 27.567 28.186 C 28.063 28.186 28.261 27.988 29.287 26.7 C 30.378 25.246 30.841 24.32 30.841 23.594 C 30.841 22.834 30.214 22.338 29.254 22.338 L 28.856 22.338 Z M 10.649 24.347 C 10.609 24.347 10.567 24.349 10.527 24.355 L 4.175 24.982 C 3.546 25.048 3.182 25.477 3.182 26.139 C 3.182 26.799 3.744 27.327 4.372 27.261 L 10.758 26.602 C 11.354 26.536 11.751 26.071 11.751 25.411 C 11.751 24.791 11.256 24.345 10.649 24.347 Z M 23.432 26.468 C 22.637 26.468 22.107 26.897 22.073 27.624 L 21.743 35.656 L 21.71 36.251 C 21.643 37.472 22.107 38.299 23.067 38.596 C 23.629 38.794 24.556 38.861 26.276 38.861 C 30.215 38.861 31.438 38.299 31.438 36.547 C 31.438 35.82 31.239 34.136 30.975 32.781 C 30.841 32.054 30.544 31.756 29.982 31.756 C 29.419 31.756 29.187 32.053 29.187 32.847 C 29.187 36.085 29.022 36.283 26.706 36.283 C 24.754 36.283 24.523 36.184 24.456 35.292 L 24.456 35.127 L 24.722 27.66 C 24.754 26.965 24.225 26.468 23.432 26.468 Z M 18.764 27.46 C 18.004 27.46 17.607 27.791 17.507 28.485 C 16.945 32.45 15.722 35.028 13.407 36.945 C 13.009 37.275 12.842 37.573 12.842 37.902 C 12.842 38.365 13.305 38.828 13.736 38.828 C 14.001 38.828 14.233 38.762 14.63 38.497 C 16.251 37.605 17.674 35.986 18.667 33.97 C 19.394 32.45 20.088 29.973 20.088 28.816 C 20.088 27.957 19.593 27.46 18.764 27.46 Z" style="fill: rgb(255, 255, 255);"/><text transform="matrix(0.681282, 0, 0, 0.711104, -1.257601, 26.328672)" id="svg_4" style="fill: rgb(211, 47, 47); font-family: &quot;Noto Sans JP&quot;; font-size: 24px; paint-order: fill; stroke: rgb(255, 82, 82); stroke-width: 2.87277px; white-space: pre;" x="47.2923" y="-4.02056">＋</text><text transform="matrix(0.98505, 0, 0, 1, -18.263435, -24.465023)" id="svg_6" style="fill: rgb(255, 82, 82); font-family: &quot;Noto Sans JP&quot;; font-size: 24px; font-weight: 700; paint-order: fill; stroke-miterlimit: 5.11; stroke-opacity: 0.87; stroke-width: 12.0904px; white-space: pre;" x="50.3481" y="63.0639">α</text></g></svg>